<?xml version="1.0" standalone="no"?>
<!DOCTYPE svg PUBLIC "-//W3C//DTD SVG 20010904//EN"
 "http://www.w3.org/TR/2001/REC-SVG-20010904/DTD/svg10.dtd">
<svg version="1.0" xmlns="http://www.w3.org/2000/svg"
 width="71.000000pt" height="80.000000pt" viewBox="0 0 71.000000 80.000000"
 preserveAspectRatio="xMidYMid meet">

<g transform="translate(0.000000,80.000000) scale(0.100000,-0.100000)"
fill="#000000" stroke="none">
<path d="M475 731 c25 -5 30 -11 30 -36 0 -26 -4 -30 -32 -33 -18 -2 -68 8
-113 22 -123 39 -194 31 -234 -26 -22 -31 -21 -101 2 -120 32 -28 39 -28 34 1
-3 21 2 33 18 44 26 18 53 15 146 -14 33 -11 80 -23 105 -27 43 -7 44 -8 47
-51 3 -39 0 -47 -30 -71 l-33 -28 33 -34 c29 -31 32 -40 32 -95 0 -69 -5 -73
-90 -73 -108 0 -180 74 -180 186 0 33 3 64 7 68 4 3 8 13 9 20 3 22 35 66 56
77 37 20 10 21 -34 1 -200 -89 -207 -342 -13 -437 49 -24 169 -32 220 -15 79
26 136 102 149 200 l7 45 -21 -37 c-18 -33 -76 -88 -93 -88 -4 0 -7 28 -7 62
0 57 2 64 33 90 l32 28 -33 27 c-28 24 -32 34 -32 76 0 41 3 47 21 47 11 0 34
13 50 29 68 68 12 174 -89 170 -27 -1 -27 -1 3 -8z"/>
<path d="M315 500 c-33 -16 -54 -29 -47 -30 9 0 12 -31 12 -121 0 -93 3 -120
13 -116 6 3 31 13 55 22 l42 17 0 129 c0 71 -3 129 -7 128 -5 0 -35 -14 -68
-29z"/>
</g>
</svg>
